<svg width="12" height="12" viewBox="0 0 12 12" fill="none" xmlns="http://www.w3.org/2000/svg">
<mask id="mask0_2901_38279" style="mask-type:alpha" maskUnits="userSpaceOnUse" x="4" y="0" width="4" height="12">
<path fill-rule="evenodd" clip-rule="evenodd" d="M5.68881 2.87946C5.30365 2.87946 4.97351 2.73996 4.69839 2.46094C4.42328 2.18192 4.28572 1.84152 4.28572 1.43973C4.28572 1.03794 4.42328 0.697546 4.69839 0.418527C4.97351 0.139508 5.30365 0 5.68881 0C6.07397 0 6.40411 0.139508 6.67922 0.418527C6.95434 0.697546 7.0919 1.03794 7.0919 1.43973C7.0919 1.84152 6.95434 2.18192 6.67922 2.46094C6.40411 2.73996 6.07397 2.87946 5.68881 2.87946ZM5.68881 4.28571C6.07397 4.28571 6.40411 4.42522 6.67922 4.70424C6.95434 4.98326 7.0919 5.32366 7.0919 5.72545C7.0919 6.12723 6.95434 6.46763 6.67922 6.74665C6.40411 7.02567 6.07397 7.16518 5.68881 7.16518C5.30365 7.16518 4.97351 7.02567 4.69839 6.74665C4.42328 6.46763 4.28572 6.12723 4.28572 5.72545C4.28572 5.32366 4.42328 4.98326 4.69839 4.70424C4.97351 4.42522 5.30365 4.28571 5.68881 4.28571ZM5.68881 8.57143C6.07397 8.57143 6.40411 8.71094 6.67922 8.98995C6.95434 9.26897 7.0919 9.60937 7.0919 10.0112C7.0919 10.4129 6.95434 10.7533 6.67922 11.0324C6.40411 11.3114 6.07397 11.4509 5.68881 11.4509C5.30365 11.4509 4.97351 11.3114 4.69839 11.0324C4.42328 10.7533 4.28572 10.4129 4.28572 10.0112C4.28572 9.60937 4.42328 9.26897 4.69839 8.98995C4.97351 8.71094 5.30365 8.57143 5.68881 8.57143Z" fill="white"/>
</mask>
<g mask="url(#mask0_2901_38279)">
<path fill-rule="evenodd" clip-rule="evenodd" d="M-31.6333 -33.2144H44.4305V43.9285H-31.6333V-33.2144Z" fill="#AFB6C6"/>
</g>
</svg>
