<svg width="28" height="27" viewBox="0 0 28 27" fill="none" xmlns="http://www.w3.org/2000/svg">
<g filter="url(#filter0_d_3608_524)">
<path fill-rule="evenodd" clip-rule="evenodd" d="M13.4283 1.54348C13.0787 1.60195 12.621 1.76751 12.2779 1.95961C11.8373 2.20622 11.2348 2.80074 10.9969 3.22368C10.2103 4.62164 10.4344 6.30665 11.556 7.42826C12.222 8.09432 13.0523 8.43698 14 8.43698C14.9477 8.43698 15.778 8.09432 16.444 7.42826C17.5656 6.30665 17.7897 4.62164 17.0031 3.22368C16.7652 2.80074 16.1627 2.20622 15.7221 1.95961C15.0254 1.56959 14.1844 1.41702 13.4283 1.54348ZM7.23742 4.82845C6.46391 5.03107 5.79898 5.61323 5.49479 6.35413C5.34982 6.70708 5.30568 6.94195 5.30614 7.35722C5.30665 7.77671 5.38243 8.10579 5.56646 8.4872C5.88798 9.1537 6.53499 9.6764 7.2681 9.86195C7.60004 9.94595 8.18865 9.94399 8.52055 9.85777C9.09957 9.70732 9.71123 9.27655 10.0428 8.78567C10.5714 8.00329 10.6231 6.96465 10.1762 6.10755C9.97699 5.72536 9.50157 5.24994 9.11937 5.05068C8.54939 4.75354 7.84211 4.67002 7.23742 4.82845ZM19.4488 4.82845C18.7857 5.00215 18.1316 5.51698 17.8238 6.10755C17.4662 6.79342 17.4224 7.59475 17.7038 8.30239C17.9986 9.04376 18.6953 9.65405 19.4795 9.85777C19.8113 9.94399 20.4 9.94595 20.7319 9.86195C21.656 9.62806 22.3919 8.89209 22.6296 7.96387C22.703 7.67714 22.7143 7.09268 22.652 6.80422C22.4468 5.85444 21.6887 5.06739 20.7472 4.82661C20.3563 4.72665 19.8345 4.72736 19.4488 4.82845ZM11.6321 9.2299C11.0379 9.36493 10.6456 9.58399 10.2 10.0296C9.82904 10.4006 9.62885 10.7194 9.46446 11.2008L9.36204 11.5009L9.35166 14.7886C9.34149 18.0202 9.34262 18.0784 9.4198 18.2038C9.46297 18.274 9.55569 18.3663 9.62587 18.4091C9.75108 18.4855 9.83147 18.4869 14 18.4869C18.1685 18.4869 18.2489 18.4855 18.3741 18.4091C18.4443 18.3663 18.537 18.274 18.5802 18.2038C18.6574 18.0784 18.6585 18.0202 18.6483 14.7886L18.638 11.5009L18.5355 11.2008C18.3712 10.7194 18.171 10.4006 17.8 10.0296C17.4289 9.65851 17.1098 9.4582 16.6288 9.29436L16.3288 9.19217L14.0978 9.18434C12.3326 9.1782 11.8179 9.18771 11.6321 9.2299ZM6.49143 10.7015C5.37178 10.8468 4.44434 11.6474 4.0919 12.7729C4.00039 13.0652 4 13.0752 4 15.1017V17.1369L4.09072 17.3616C4.27444 17.8165 4.65194 18.1938 5.10607 18.3766C5.3247 18.4645 5.37018 18.4673 6.80611 18.4793L8.28149 18.4915L8.23593 18.3622C8.17468 18.1882 8.14661 12.2108 8.20454 11.677C8.22673 11.4725 8.27382 11.1995 8.30916 11.0704C8.3445 10.9412 8.38215 10.7959 8.39284 10.7475L8.41225 10.6594L7.57601 10.6644C7.11605 10.6671 6.62798 10.6838 6.49143 10.7015ZM19.6072 10.7475C19.6178 10.7959 19.6555 10.9412 19.6908 11.0704C19.7262 11.1995 19.7733 11.4725 19.7955 11.677C19.8534 12.2108 19.8253 18.1882 19.7641 18.3622L19.7185 18.4915L21.1939 18.4793C22.6298 18.4673 22.6753 18.4645 22.8939 18.3766C23.3481 18.1938 23.7256 17.8165 23.9093 17.3616L24 17.1369V15.1017C24 13.0707 23.9998 13.0658 23.9075 12.7729C23.6108 11.8319 22.9494 11.1371 22.0631 10.8357C21.6663 10.7007 21.2685 10.6594 20.3663 10.6594H19.5877L19.6072 10.7475Z" fill="#AFB6C6"/>
</g>
<defs>
<filter id="filter0_d_3608_524" x="0" y="0" width="28" height="28" filterUnits="userSpaceOnUse" color-interpolation-filters="sRGB">
<feFlood flood-opacity="0" result="BackgroundImageFix"/>
<feColorMatrix in="SourceAlpha" type="matrix" values="0 0 0 0 0 0 0 0 0 0 0 0 0 0 0 0 0 0 127 0" result="hardAlpha"/>
<feOffset dy="4"/>
<feGaussianBlur stdDeviation="2"/>
<feComposite in2="hardAlpha" operator="out"/>
<feColorMatrix type="matrix" values="0 0 0 0 0 0 0 0 0 0 0 0 0 0 0 0 0 0 0.25 0"/>
<feBlend mode="normal" in2="BackgroundImageFix" result="effect1_dropShadow_3608_524"/>
<feBlend mode="normal" in="SourceGraphic" in2="effect1_dropShadow_3608_524" result="shape"/>
</filter>
</defs>
</svg>
